<svg width="606" height="590" viewBox="0 0 606 590" fill="none" xmlns="http://www.w3.org/2000/svg">
<path d="M251.553 34H324.92C328.947 34 332.95 34.6079 336.795 35.8032L459.803 74.0439C474.467 78.6026 485.226 91.1534 487.491 106.341L552.752 544.01C555.163 560.18 544.922 575.544 529.069 579.54C518.111 582.302 506.509 579.042 498.594 570.975L182.183 248.493C172.17 238.288 168.365 223.514 172.203 209.742L213.021 63.2626C217.841 45.9655 233.596 34 251.553 34Z" stroke="white" stroke-width="4"/>
<path d="M272.553 34H345.92C349.947 34 353.95 34.6079 357.795 35.8032L480.803 74.0439C495.467 78.6026 506.226 91.1534 508.491 106.341L573.752 544.01C576.163 560.18 565.922 575.544 550.069 579.54C539.111 582.302 527.509 579.042 519.594 570.975L203.183 248.493C193.17 238.288 189.365 223.514 193.203 209.742L234.021 63.2626C238.841 45.9655 254.596 34 272.553 34Z" stroke="white" stroke-width="4"/>
<path d="M230.553 34H303.92C307.947 34 311.95 34.6079 315.795 35.8032L438.803 74.0439C453.467 78.6026 464.226 91.1534 466.491 106.341L531.752 544.01C534.163 560.18 523.922 575.544 508.069 579.54C497.111 582.302 485.509 579.042 477.594 570.975L161.183 248.493C151.17 238.288 147.365 223.514 151.203 209.742L192.021 63.2626C196.841 45.9655 212.596 34 230.553 34Z" stroke="white" stroke-width="4"/>
<path d="M148.819 126.224C151.135 122.26 156.865 122.26 159.181 126.224L282.094 336.614C284.431 340.614 281.546 345.641 276.914 345.641H31.0863C26.4538 345.641 23.5688 340.614 25.9056 336.614L148.819 126.224Z" fill="#FFE463"/>
<rect x="320" y="0.17334" width="226" height="224.279" rx="10" fill="#1FA7FF"/>
<ellipse cx="504" cy="489.282" rx="102" ry="100.625" fill="#FF5F5F"/>
</svg>
